<mxfile host="app.diagrams.net" modified="2021-08-20T09:42:03.575Z" agent="5.0 (Windows NT 10.0; Win64; x64) AppleWebKit/537.36 (KHTML, like Gecko) Chrome/90.0.4430.72 Safari/537.36" etag="aEAQ6Qq8dftf72ZX8zKS" version="14.9.7" type="github">
  <diagram id="cXFaiR-M7mMCjgpAkLDr" name="第 1 页">
    <mxGraphModel dx="2031" dy="1089" grid="0" gridSize="10" guides="1" tooltips="1" connect="1" arrows="1" fold="1" page="1" pageScale="1" pageWidth="1169" pageHeight="827" math="0" shadow="0">
      <root>
        <mxCell id="0" />
        <mxCell id="1" parent="0" />
        <mxCell id="SKbaHKgdaT2-RbnQXm6t-66" value="Radicle" style="rounded=0;whiteSpace=wrap;html=1;fontFamily=Times New Roman;fontSize=18;align=center;verticalAlign=top;dashed=1;dashPattern=1 4;strokeWidth=1;fontStyle=1" vertex="1" parent="1">
          <mxGeometry x="1717" y="1226" width="134" height="157" as="geometry" />
        </mxCell>
        <mxCell id="SKbaHKgdaT2-RbnQXm6t-47" value="main" style="rounded=0;whiteSpace=wrap;html=1;fontFamily=Times New Roman;fontSize=18;align=center;verticalAlign=top;dashed=1;dashPattern=1 4;strokeWidth=1;fontStyle=1" vertex="1" parent="1">
          <mxGeometry x="1435" y="990" width="254" height="429" as="geometry" />
        </mxCell>
        <mxCell id="SKbaHKgdaT2-RbnQXm6t-46" value="dosim" style="rounded=0;whiteSpace=wrap;html=1;fontFamily=Times New Roman;fontSize=18;align=center;verticalAlign=top;dashed=1;dashPattern=1 4;strokeWidth=1;fontStyle=1" vertex="1" parent="1">
          <mxGeometry x="1268" y="989" width="150" height="428.75" as="geometry" />
        </mxCell>
        <mxCell id="p9OSbixDrH1Z1NHIFBw4-9" value="Module" style="swimlane;fontStyle=1;align=center;verticalAlign=top;childLayout=stackLayout;horizontal=1;startSize=26;horizontalStack=0;resizeParent=1;resizeParentMax=0;resizeLast=0;collapsible=1;marginBottom=0;" parent="1" vertex="1">
          <mxGeometry x="421" y="111" width="290" height="190" as="geometry" />
        </mxCell>
        <mxCell id="p9OSbixDrH1Z1NHIFBw4-13" value="+ name: string" style="text;strokeColor=none;fillColor=none;align=left;verticalAlign=top;spacingLeft=4;spacingRight=4;overflow=hidden;rotatable=0;points=[[0,0.5],[1,0.5]];portConstraint=eastwest;" parent="p9OSbixDrH1Z1NHIFBw4-9" vertex="1">
          <mxGeometry y="26" width="290" height="26" as="geometry" />
        </mxCell>
        <mxCell id="p9OSbixDrH1Z1NHIFBw4-10" value="+ routines: dosim.Routine* []" style="text;strokeColor=none;fillColor=none;align=left;verticalAlign=top;spacingLeft=4;spacingRight=4;overflow=hidden;rotatable=0;points=[[0,0.5],[1,0.5]];portConstraint=eastwest;" parent="p9OSbixDrH1Z1NHIFBw4-9" vertex="1">
          <mxGeometry y="52" width="290" height="26" as="geometry" />
        </mxCell>
        <mxCell id="p9OSbixDrH1Z1NHIFBw4-14" value="+ methods: dosim.Method* []" style="text;strokeColor=none;fillColor=none;align=left;verticalAlign=top;spacingLeft=4;spacingRight=4;overflow=hidden;rotatable=0;points=[[0,0.5],[1,0.5]];portConstraint=eastwest;" parent="p9OSbixDrH1Z1NHIFBw4-9" vertex="1">
          <mxGeometry y="78" width="290" height="26" as="geometry" />
        </mxCell>
        <mxCell id="p9OSbixDrH1Z1NHIFBw4-11" value="" style="line;strokeWidth=1;fillColor=none;align=left;verticalAlign=middle;spacingTop=-1;spacingLeft=3;spacingRight=3;rotatable=0;labelPosition=right;points=[];portConstraint=eastwest;" parent="p9OSbixDrH1Z1NHIFBw4-9" vertex="1">
          <mxGeometry y="104" width="290" height="8" as="geometry" />
        </mxCell>
        <mxCell id="p9OSbixDrH1Z1NHIFBw4-12" value="+ Init(name string): Module*" style="text;strokeColor=none;fillColor=none;align=left;verticalAlign=top;spacingLeft=4;spacingRight=4;overflow=hidden;rotatable=0;points=[[0,0.5],[1,0.5]];portConstraint=eastwest;" parent="p9OSbixDrH1Z1NHIFBw4-9" vertex="1">
          <mxGeometry y="112" width="290" height="26" as="geometry" />
        </mxCell>
        <mxCell id="p9OSbixDrH1Z1NHIFBw4-15" value="+ AddRoutine(name, host, mutex): dosim.Routine*" style="text;strokeColor=none;fillColor=none;align=left;verticalAlign=top;spacingLeft=4;spacingRight=4;overflow=hidden;rotatable=0;points=[[0,0.5],[1,0.5]];portConstraint=eastwest;" parent="p9OSbixDrH1Z1NHIFBw4-9" vertex="1">
          <mxGeometry y="138" width="290" height="26" as="geometry" />
        </mxCell>
        <mxCell id="p9OSbixDrH1Z1NHIFBw4-16" value="+ AddMethod(name, host): dosim.Method*" style="text;strokeColor=none;fillColor=none;align=left;verticalAlign=top;spacingLeft=4;spacingRight=4;overflow=hidden;rotatable=0;points=[[0,0.5],[1,0.5]];portConstraint=eastwest;" parent="p9OSbixDrH1Z1NHIFBw4-9" vertex="1">
          <mxGeometry y="164" width="290" height="26" as="geometry" />
        </mxCell>
        <mxCell id="p9OSbixDrH1Z1NHIFBw4-17" value="Event" style="swimlane;fontStyle=1;align=center;verticalAlign=top;childLayout=stackLayout;horizontal=1;startSize=26;horizontalStack=0;resizeParent=1;resizeParentMax=0;resizeLast=0;collapsible=1;marginBottom=0;" parent="1" vertex="1">
          <mxGeometry x="453" y="417" width="160" height="216" as="geometry" />
        </mxCell>
        <mxCell id="p9OSbixDrH1Z1NHIFBw4-21" value="+ name: string" style="text;strokeColor=none;fillColor=none;align=left;verticalAlign=top;spacingLeft=4;spacingRight=4;overflow=hidden;rotatable=0;points=[[0,0.5],[1,0.5]];portConstraint=eastwest;" parent="p9OSbixDrH1Z1NHIFBw4-17" vertex="1">
          <mxGeometry y="26" width="160" height="26" as="geometry" />
        </mxCell>
        <mxCell id="p9OSbixDrH1Z1NHIFBw4-22" value="+ evt: uint*" style="text;strokeColor=none;fillColor=none;align=left;verticalAlign=top;spacingLeft=4;spacingRight=4;overflow=hidden;rotatable=0;points=[[0,0.5],[1,0.5]];portConstraint=eastwest;" parent="p9OSbixDrH1Z1NHIFBw4-17" vertex="1">
          <mxGeometry y="52" width="160" height="26" as="geometry" />
        </mxCell>
        <mxCell id="p9OSbixDrH1Z1NHIFBw4-18" value="+ hosts: dosim.CHost* []" style="text;strokeColor=none;fillColor=none;align=left;verticalAlign=top;spacingLeft=4;spacingRight=4;overflow=hidden;rotatable=0;points=[[0,0.5],[1,0.5]];portConstraint=eastwest;" parent="p9OSbixDrH1Z1NHIFBw4-17" vertex="1">
          <mxGeometry y="78" width="160" height="26" as="geometry" />
        </mxCell>
        <mxCell id="p9OSbixDrH1Z1NHIFBw4-19" value="" style="line;strokeWidth=1;fillColor=none;align=left;verticalAlign=middle;spacingTop=-1;spacingLeft=3;spacingRight=3;rotatable=0;labelPosition=right;points=[];portConstraint=eastwest;" parent="p9OSbixDrH1Z1NHIFBw4-17" vertex="1">
          <mxGeometry y="104" width="160" height="8" as="geometry" />
        </mxCell>
        <mxCell id="p9OSbixDrH1Z1NHIFBw4-20" value="+ Init(name, evt): Event*" style="text;strokeColor=none;fillColor=none;align=left;verticalAlign=top;spacingLeft=4;spacingRight=4;overflow=hidden;rotatable=0;points=[[0,0.5],[1,0.5]];portConstraint=eastwest;" parent="p9OSbixDrH1Z1NHIFBw4-17" vertex="1">
          <mxGeometry y="112" width="160" height="26" as="geometry" />
        </mxCell>
        <mxCell id="p9OSbixDrH1Z1NHIFBw4-25" value="+ Bind(host): void" style="text;strokeColor=none;fillColor=none;align=left;verticalAlign=top;spacingLeft=4;spacingRight=4;overflow=hidden;rotatable=0;points=[[0,0.5],[1,0.5]];portConstraint=eastwest;" parent="p9OSbixDrH1Z1NHIFBw4-17" vertex="1">
          <mxGeometry y="138" width="160" height="26" as="geometry" />
        </mxCell>
        <mxCell id="p9OSbixDrH1Z1NHIFBw4-24" value="+ Notify(tv, tu): bool" style="text;strokeColor=none;fillColor=none;align=left;verticalAlign=top;spacingLeft=4;spacingRight=4;overflow=hidden;rotatable=0;points=[[0,0.5],[1,0.5]];portConstraint=eastwest;" parent="p9OSbixDrH1Z1NHIFBw4-17" vertex="1">
          <mxGeometry y="164" width="160" height="26" as="geometry" />
        </mxCell>
        <mxCell id="p9OSbixDrH1Z1NHIFBw4-23" value="+ Trigger(tv, tu): bool" style="text;strokeColor=none;fillColor=none;align=left;verticalAlign=top;spacingLeft=4;spacingRight=4;overflow=hidden;rotatable=0;points=[[0,0.5],[1,0.5]];portConstraint=eastwest;" parent="p9OSbixDrH1Z1NHIFBw4-17" vertex="1">
          <mxGeometry y="190" width="160" height="26" as="geometry" />
        </mxCell>
        <mxCell id="p9OSbixDrH1Z1NHIFBw4-26" value="SimManager" style="swimlane;fontStyle=1;align=center;verticalAlign=top;childLayout=stackLayout;horizontal=1;startSize=26;horizontalStack=0;resizeParent=1;resizeParentMax=0;resizeLast=0;collapsible=1;marginBottom=0;" parent="1" vertex="1">
          <mxGeometry x="64" y="47" width="290" height="502" as="geometry" />
        </mxCell>
        <mxCell id="p9OSbixDrH1Z1NHIFBw4-27" value="+ current: uint64" style="text;strokeColor=none;fillColor=none;align=left;verticalAlign=top;spacingLeft=4;spacingRight=4;overflow=hidden;rotatable=0;points=[[0,0.5],[1,0.5]];portConstraint=eastwest;" parent="p9OSbixDrH1Z1NHIFBw4-26" vertex="1">
          <mxGeometry y="26" width="290" height="26" as="geometry" />
        </mxCell>
        <mxCell id="p9OSbixDrH1Z1NHIFBw4-34" value="+ tstime: uint64" style="text;strokeColor=none;fillColor=none;align=left;verticalAlign=top;spacingLeft=4;spacingRight=4;overflow=hidden;rotatable=0;points=[[0,0.5],[1,0.5]];portConstraint=eastwest;" parent="p9OSbixDrH1Z1NHIFBw4-26" vertex="1">
          <mxGeometry y="52" width="290" height="26" as="geometry" />
        </mxCell>
        <mxCell id="p9OSbixDrH1Z1NHIFBw4-28" value="+ cycles: uint64" style="text;strokeColor=none;fillColor=none;align=left;verticalAlign=top;spacingLeft=4;spacingRight=4;overflow=hidden;rotatable=0;points=[[0,0.5],[1,0.5]];portConstraint=eastwest;" parent="p9OSbixDrH1Z1NHIFBw4-26" vertex="1">
          <mxGeometry y="78" width="290" height="26" as="geometry" />
        </mxCell>
        <mxCell id="p9OSbixDrH1Z1NHIFBw4-35" value="+ simStop: bool" style="text;strokeColor=none;fillColor=none;align=left;verticalAlign=top;spacingLeft=4;spacingRight=4;overflow=hidden;rotatable=0;points=[[0,0.5],[1,0.5]];portConstraint=eastwest;" parent="p9OSbixDrH1Z1NHIFBw4-26" vertex="1">
          <mxGeometry y="104" width="290" height="26" as="geometry" />
        </mxCell>
        <mxCell id="p9OSbixDrH1Z1NHIFBw4-36" value="+ entries: dosim.SimEntries* []" style="text;strokeColor=none;fillColor=none;align=left;verticalAlign=top;spacingLeft=4;spacingRight=4;overflow=hidden;rotatable=0;points=[[0,0.5],[1,0.5]];portConstraint=eastwest;" parent="p9OSbixDrH1Z1NHIFBw4-26" vertex="1">
          <mxGeometry y="130" width="290" height="26" as="geometry" />
        </mxCell>
        <mxCell id="p9OSbixDrH1Z1NHIFBw4-37" value="+ modules: Module* []" style="text;strokeColor=none;fillColor=none;align=left;verticalAlign=top;spacingLeft=4;spacingRight=4;overflow=hidden;rotatable=0;points=[[0,0.5],[1,0.5]];portConstraint=eastwest;" parent="p9OSbixDrH1Z1NHIFBw4-26" vertex="1">
          <mxGeometry y="156" width="290" height="26" as="geometry" />
        </mxCell>
        <mxCell id="p9OSbixDrH1Z1NHIFBw4-38" value="+ pmethods: dosim.Method* []" style="text;strokeColor=none;fillColor=none;align=left;verticalAlign=top;spacingLeft=4;spacingRight=4;overflow=hidden;rotatable=0;points=[[0,0.5],[1,0.5]];portConstraint=eastwest;" parent="p9OSbixDrH1Z1NHIFBw4-26" vertex="1">
          <mxGeometry y="182" width="290" height="26" as="geometry" />
        </mxCell>
        <mxCell id="p9OSbixDrH1Z1NHIFBw4-29" value="+ syroutines: SyRoutine* []" style="text;strokeColor=none;fillColor=none;align=left;verticalAlign=top;spacingLeft=4;spacingRight=4;overflow=hidden;rotatable=0;points=[[0,0.5],[1,0.5]];portConstraint=eastwest;" parent="p9OSbixDrH1Z1NHIFBw4-26" vertex="1">
          <mxGeometry y="208" width="290" height="26" as="geometry" />
        </mxCell>
        <mxCell id="p9OSbixDrH1Z1NHIFBw4-40" value="+ tevslock: sync.Mutex" style="text;strokeColor=none;fillColor=none;align=left;verticalAlign=top;spacingLeft=4;spacingRight=4;overflow=hidden;rotatable=0;points=[[0,0.5],[1,0.5]];portConstraint=eastwest;" parent="p9OSbixDrH1Z1NHIFBw4-26" vertex="1">
          <mxGeometry y="234" width="290" height="26" as="geometry" />
        </mxCell>
        <mxCell id="p9OSbixDrH1Z1NHIFBw4-41" value="+ tevents: TimedEvent* []" style="text;strokeColor=none;fillColor=none;align=left;verticalAlign=top;spacingLeft=4;spacingRight=4;overflow=hidden;rotatable=0;points=[[0,0.5],[1,0.5]];portConstraint=eastwest;" parent="p9OSbixDrH1Z1NHIFBw4-26" vertex="1">
          <mxGeometry y="260" width="290" height="26" as="geometry" />
        </mxCell>
        <mxCell id="p9OSbixDrH1Z1NHIFBw4-39" value="+ gwg: sync.WaitGroup*" style="text;strokeColor=none;fillColor=none;align=left;verticalAlign=top;spacingLeft=4;spacingRight=4;overflow=hidden;rotatable=0;points=[[0,0.5],[1,0.5]];portConstraint=eastwest;" parent="p9OSbixDrH1Z1NHIFBw4-26" vertex="1">
          <mxGeometry y="286" width="290" height="26" as="geometry" />
        </mxCell>
        <mxCell id="p9OSbixDrH1Z1NHIFBw4-42" value="+ syclk: dosim.SimClockUnit*" style="text;strokeColor=none;fillColor=none;align=left;verticalAlign=top;spacingLeft=4;spacingRight=4;overflow=hidden;rotatable=0;points=[[0,0.5],[1,0.5]];portConstraint=eastwest;" parent="p9OSbixDrH1Z1NHIFBw4-26" vertex="1">
          <mxGeometry y="312" width="290" height="26" as="geometry" />
        </mxCell>
        <mxCell id="p9OSbixDrH1Z1NHIFBw4-43" value="+ fullSync: bool" style="text;strokeColor=none;fillColor=none;align=left;verticalAlign=top;spacingLeft=4;spacingRight=4;overflow=hidden;rotatable=0;points=[[0,0.5],[1,0.5]];portConstraint=eastwest;" parent="p9OSbixDrH1Z1NHIFBw4-26" vertex="1">
          <mxGeometry y="338" width="290" height="26" as="geometry" />
        </mxCell>
        <mxCell id="p9OSbixDrH1Z1NHIFBw4-45" value="+ parallelSync: bool" style="text;strokeColor=none;fillColor=none;align=left;verticalAlign=top;spacingLeft=4;spacingRight=4;overflow=hidden;rotatable=0;points=[[0,0.5],[1,0.5]];portConstraint=eastwest;" parent="p9OSbixDrH1Z1NHIFBw4-26" vertex="1">
          <mxGeometry y="364" width="290" height="26" as="geometry" />
        </mxCell>
        <mxCell id="p9OSbixDrH1Z1NHIFBw4-44" value="+ splitCount: uint" style="text;strokeColor=none;fillColor=none;align=left;verticalAlign=top;spacingLeft=4;spacingRight=4;overflow=hidden;rotatable=0;points=[[0,0.5],[1,0.5]];portConstraint=eastwest;" parent="p9OSbixDrH1Z1NHIFBw4-26" vertex="1">
          <mxGeometry y="390" width="290" height="26" as="geometry" />
        </mxCell>
        <mxCell id="p9OSbixDrH1Z1NHIFBw4-46" value="+ nextConfig: SimConfig*" style="text;strokeColor=none;fillColor=none;align=left;verticalAlign=top;spacingLeft=4;spacingRight=4;overflow=hidden;rotatable=0;points=[[0,0.5],[1,0.5]];portConstraint=eastwest;" parent="p9OSbixDrH1Z1NHIFBw4-26" vertex="1">
          <mxGeometry y="416" width="290" height="26" as="geometry" />
        </mxCell>
        <mxCell id="p9OSbixDrH1Z1NHIFBw4-47" value="+ nextConfigTime: uint64" style="text;strokeColor=none;fillColor=none;align=left;verticalAlign=top;spacingLeft=4;spacingRight=4;overflow=hidden;rotatable=0;points=[[0,0.5],[1,0.5]];portConstraint=eastwest;" parent="p9OSbixDrH1Z1NHIFBw4-26" vertex="1">
          <mxGeometry y="442" width="290" height="26" as="geometry" />
        </mxCell>
        <mxCell id="p9OSbixDrH1Z1NHIFBw4-30" value="" style="line;strokeWidth=1;fillColor=none;align=left;verticalAlign=middle;spacingTop=-1;spacingLeft=3;spacingRight=3;rotatable=0;labelPosition=right;points=[];portConstraint=eastwest;" parent="p9OSbixDrH1Z1NHIFBw4-26" vertex="1">
          <mxGeometry y="468" width="290" height="8" as="geometry" />
        </mxCell>
        <mxCell id="nS42Kp8ZOGp9bS_Bpd67-25" value="+ AddModule(module): bool" style="text;strokeColor=none;fillColor=none;align=left;verticalAlign=top;spacingLeft=4;spacingRight=4;overflow=hidden;rotatable=0;points=[[0,0.5],[1,0.5]];portConstraint=eastwest;" parent="p9OSbixDrH1Z1NHIFBw4-26" vertex="1">
          <mxGeometry y="476" width="290" height="26" as="geometry" />
        </mxCell>
        <mxCell id="-j5esIaDe7Hmi_AwQub0-12" value="extern" style="edgeStyle=orthogonalEdgeStyle;rounded=0;orthogonalLoop=1;jettySize=auto;html=1;entryX=0;entryY=0.5;entryDx=0;entryDy=0;dashed=1;curved=1;" parent="1" source="-j5esIaDe7Hmi_AwQub0-1" target="-j5esIaDe7Hmi_AwQub0-9" edge="1">
          <mxGeometry relative="1" as="geometry" />
        </mxCell>
        <mxCell id="-j5esIaDe7Hmi_AwQub0-1" value="DPI" style="swimlane;fillColor=#d5e8d4;strokeColor=#82b366;" parent="1" vertex="1">
          <mxGeometry x="190" y="950" width="200" height="190" as="geometry" />
        </mxCell>
        <mxCell id="-j5esIaDe7Hmi_AwQub0-2" value="DPI_AddModule" style="text;html=1;strokeColor=none;fillColor=none;align=center;verticalAlign=middle;whiteSpace=wrap;rounded=0;" parent="-j5esIaDe7Hmi_AwQub0-1" vertex="1">
          <mxGeometry x="40" y="40" width="120" height="20" as="geometry" />
        </mxCell>
        <mxCell id="-j5esIaDe7Hmi_AwQub0-3" value="DPI_SimStart" style="text;html=1;strokeColor=none;fillColor=none;align=center;verticalAlign=middle;whiteSpace=wrap;rounded=0;" parent="-j5esIaDe7Hmi_AwQub0-1" vertex="1">
          <mxGeometry x="40" y="160" width="120" height="20" as="geometry" />
        </mxCell>
        <mxCell id="-j5esIaDe7Hmi_AwQub0-4" value="DPI_AddMethod" style="text;html=1;strokeColor=none;fillColor=none;align=center;verticalAlign=middle;whiteSpace=wrap;rounded=0;" parent="-j5esIaDe7Hmi_AwQub0-1" vertex="1">
          <mxGeometry x="40" y="60" width="120" height="20" as="geometry" />
        </mxCell>
        <mxCell id="-j5esIaDe7Hmi_AwQub0-5" value="DPI_AddRoutine" style="text;html=1;strokeColor=none;fillColor=none;align=center;verticalAlign=middle;whiteSpace=wrap;rounded=0;" parent="-j5esIaDe7Hmi_AwQub0-1" vertex="1">
          <mxGeometry x="40" y="80" width="120" height="20" as="geometry" />
        </mxCell>
        <mxCell id="-j5esIaDe7Hmi_AwQub0-6" value="DPI_AddEvent" style="text;html=1;strokeColor=none;fillColor=none;align=center;verticalAlign=middle;whiteSpace=wrap;rounded=0;" parent="-j5esIaDe7Hmi_AwQub0-1" vertex="1">
          <mxGeometry x="40" y="100" width="120" height="20" as="geometry" />
        </mxCell>
        <mxCell id="-j5esIaDe7Hmi_AwQub0-7" value="DPI_AddClock" style="text;html=1;strokeColor=none;fillColor=none;align=center;verticalAlign=middle;whiteSpace=wrap;rounded=0;" parent="-j5esIaDe7Hmi_AwQub0-1" vertex="1">
          <mxGeometry x="40" y="120" width="120" height="20" as="geometry" />
        </mxCell>
        <mxCell id="-j5esIaDe7Hmi_AwQub0-8" value="DPI_BinkClk" style="text;html=1;strokeColor=none;fillColor=none;align=center;verticalAlign=middle;whiteSpace=wrap;rounded=0;" parent="-j5esIaDe7Hmi_AwQub0-1" vertex="1">
          <mxGeometry x="40" y="140" width="120" height="20" as="geometry" />
        </mxCell>
        <mxCell id="-j5esIaDe7Hmi_AwQub0-9" value="Radicle.lib" style="swimlane;fillColor=#dae8fc;strokeColor=#6c8ebf;" parent="1" vertex="1">
          <mxGeometry x="585" y="995" width="200" height="100" as="geometry" />
        </mxCell>
        <mxCell id="-j5esIaDe7Hmi_AwQub0-10" value="s_domino" style="text;html=1;strokeColor=none;fillColor=none;align=center;verticalAlign=middle;whiteSpace=wrap;rounded=0;" parent="-j5esIaDe7Hmi_AwQub0-9" vertex="1">
          <mxGeometry x="40" y="40" width="120" height="20" as="geometry" />
        </mxCell>
        <mxCell id="-j5esIaDe7Hmi_AwQub0-11" value="Rootage()" style="text;html=1;strokeColor=none;fillColor=none;align=center;verticalAlign=middle;whiteSpace=wrap;rounded=0;" parent="-j5esIaDe7Hmi_AwQub0-9" vertex="1">
          <mxGeometry x="40" y="70" width="120" height="20" as="geometry" />
        </mxCell>
        <mxCell id="-j5esIaDe7Hmi_AwQub0-13" value="main" style="swimlane;fillColor=#d5e8d4;strokeColor=#82b366;" parent="1" vertex="1">
          <mxGeometry x="190" y="1190" width="200" height="140" as="geometry" />
        </mxCell>
        <mxCell id="-j5esIaDe7Hmi_AwQub0-14" value="syscall.LoadLibrary" style="text;html=1;strokeColor=none;fillColor=none;align=center;verticalAlign=middle;whiteSpace=wrap;rounded=0;" parent="-j5esIaDe7Hmi_AwQub0-13" vertex="1">
          <mxGeometry x="40" y="40" width="120" height="20" as="geometry" />
        </mxCell>
        <mxCell id="-j5esIaDe7Hmi_AwQub0-16" value="syscall.GetProcAddress" style="text;html=1;strokeColor=none;fillColor=none;align=center;verticalAlign=middle;whiteSpace=wrap;rounded=0;" parent="-j5esIaDe7Hmi_AwQub0-13" vertex="1">
          <mxGeometry x="25" y="70" width="150" height="20" as="geometry" />
        </mxCell>
        <mxCell id="-j5esIaDe7Hmi_AwQub0-17" value="syscall.Syscall" style="text;html=1;strokeColor=none;fillColor=none;align=center;verticalAlign=middle;whiteSpace=wrap;rounded=0;" parent="-j5esIaDe7Hmi_AwQub0-13" vertex="1">
          <mxGeometry x="25" y="100" width="150" height="20" as="geometry" />
        </mxCell>
        <mxCell id="-j5esIaDe7Hmi_AwQub0-21" value="demo.dll" style="swimlane;fillColor=#dae8fc;strokeColor=#6c8ebf;" parent="1" vertex="1">
          <mxGeometry x="585" y="1145" width="200" height="100" as="geometry" />
        </mxCell>
        <mxCell id="-j5esIaDe7Hmi_AwQub0-22" value="demo_entry()" style="text;html=1;strokeColor=none;fillColor=none;align=center;verticalAlign=middle;whiteSpace=wrap;rounded=0;" parent="-j5esIaDe7Hmi_AwQub0-21" vertex="1">
          <mxGeometry x="40" y="40" width="120" height="20" as="geometry" />
        </mxCell>
        <mxCell id="-j5esIaDe7Hmi_AwQub0-29" value="test_module" style="text;html=1;strokeColor=none;fillColor=none;align=center;verticalAlign=middle;whiteSpace=wrap;rounded=0;" parent="-j5esIaDe7Hmi_AwQub0-21" vertex="1">
          <mxGeometry x="40" y="70" width="120" height="20" as="geometry" />
        </mxCell>
        <mxCell id="-j5esIaDe7Hmi_AwQub0-24" value="scospores.dll" style="swimlane;fillColor=#dae8fc;strokeColor=#6c8ebf;" parent="1" vertex="1">
          <mxGeometry x="585" y="1292" width="200" height="180" as="geometry" />
        </mxCell>
        <mxCell id="-j5esIaDe7Hmi_AwQub0-25" value="InitializeDomino()" style="text;html=1;strokeColor=none;fillColor=none;align=center;verticalAlign=middle;whiteSpace=wrap;rounded=0;" parent="-j5esIaDe7Hmi_AwQub0-24" vertex="1">
          <mxGeometry x="40" y="40" width="120" height="20" as="geometry" />
        </mxCell>
        <mxCell id="-j5esIaDe7Hmi_AwQub0-26" value="sc_module" style="text;html=1;strokeColor=none;fillColor=none;align=center;verticalAlign=middle;whiteSpace=wrap;rounded=0;" parent="-j5esIaDe7Hmi_AwQub0-24" vertex="1">
          <mxGeometry x="40" y="70" width="120" height="20" as="geometry" />
        </mxCell>
        <mxCell id="-j5esIaDe7Hmi_AwQub0-27" value="sc_clock" style="text;html=1;strokeColor=none;fillColor=none;align=center;verticalAlign=middle;whiteSpace=wrap;rounded=0;" parent="-j5esIaDe7Hmi_AwQub0-24" vertex="1">
          <mxGeometry x="40" y="90" width="120" height="20" as="geometry" />
        </mxCell>
        <mxCell id="-j5esIaDe7Hmi_AwQub0-28" value="SC_METHOD" style="text;html=1;strokeColor=none;fillColor=none;align=center;verticalAlign=middle;whiteSpace=wrap;rounded=0;" parent="-j5esIaDe7Hmi_AwQub0-24" vertex="1">
          <mxGeometry x="40" y="110" width="120" height="20" as="geometry" />
        </mxCell>
        <mxCell id="-j5esIaDe7Hmi_AwQub0-30" value="sc_start" style="text;html=1;strokeColor=none;fillColor=none;align=center;verticalAlign=middle;whiteSpace=wrap;rounded=0;" parent="-j5esIaDe7Hmi_AwQub0-24" vertex="1">
          <mxGeometry x="40" y="150" width="120" height="20" as="geometry" />
        </mxCell>
        <mxCell id="-j5esIaDe7Hmi_AwQub0-31" value="SC_THREAD" style="text;html=1;strokeColor=none;fillColor=none;align=center;verticalAlign=middle;whiteSpace=wrap;rounded=0;" parent="-j5esIaDe7Hmi_AwQub0-24" vertex="1">
          <mxGeometry x="40" y="130" width="120" height="20" as="geometry" />
        </mxCell>
        <mxCell id="-j5esIaDe7Hmi_AwQub0-32" style="edgeStyle=orthogonalEdgeStyle;rounded=0;orthogonalLoop=1;jettySize=auto;html=1;entryX=0.5;entryY=0;entryDx=0;entryDy=0;" parent="1" source="-j5esIaDe7Hmi_AwQub0-14" target="-j5esIaDe7Hmi_AwQub0-21" edge="1">
          <mxGeometry relative="1" as="geometry" />
        </mxCell>
        <mxCell id="-j5esIaDe7Hmi_AwQub0-33" style="edgeStyle=orthogonalEdgeStyle;rounded=0;orthogonalLoop=1;jettySize=auto;html=1;entryX=0;entryY=0.5;entryDx=0;entryDy=0;" parent="1" source="-j5esIaDe7Hmi_AwQub0-16" target="-j5esIaDe7Hmi_AwQub0-22" edge="1">
          <mxGeometry relative="1" as="geometry">
            <mxPoint x="630" y="1240" as="targetPoint" />
          </mxGeometry>
        </mxCell>
        <mxCell id="-j5esIaDe7Hmi_AwQub0-34" style="edgeStyle=orthogonalEdgeStyle;rounded=0;orthogonalLoop=1;jettySize=auto;html=1;entryX=0;entryY=0.5;entryDx=0;entryDy=0;" parent="1" source="-j5esIaDe7Hmi_AwQub0-17" target="-j5esIaDe7Hmi_AwQub0-22" edge="1">
          <mxGeometry relative="1" as="geometry" />
        </mxCell>
        <mxCell id="-j5esIaDe7Hmi_AwQub0-35" value="arg" style="edgeStyle=orthogonalEdgeStyle;rounded=0;orthogonalLoop=1;jettySize=auto;html=1;entryX=1;entryY=0.25;entryDx=0;entryDy=0;dashed=1;curved=1;" parent="1" source="-j5esIaDe7Hmi_AwQub0-11" target="-j5esIaDe7Hmi_AwQub0-17" edge="1">
          <mxGeometry x="-0.1417" relative="1" as="geometry">
            <mxPoint as="offset" />
          </mxGeometry>
        </mxCell>
        <mxCell id="-j5esIaDe7Hmi_AwQub0-36" style="edgeStyle=orthogonalEdgeStyle;rounded=0;orthogonalLoop=1;jettySize=auto;html=1;entryX=1;entryY=0.5;entryDx=0;entryDy=0;exitX=1;exitY=0.5;exitDx=0;exitDy=0;" parent="1" source="-j5esIaDe7Hmi_AwQub0-22" target="-j5esIaDe7Hmi_AwQub0-25" edge="1">
          <mxGeometry relative="1" as="geometry" />
        </mxCell>
        <mxCell id="-j5esIaDe7Hmi_AwQub0-37" value="golang侧" style="text;html=1;strokeColor=#82b366;fillColor=#d5e8d4;align=center;verticalAlign=middle;whiteSpace=wrap;rounded=0;" parent="1" vertex="1">
          <mxGeometry x="255" y="900" width="70" height="20" as="geometry" />
        </mxCell>
        <mxCell id="-j5esIaDe7Hmi_AwQub0-38" value="cpp侧" style="text;html=1;strokeColor=#6c8ebf;fillColor=#dae8fc;align=center;verticalAlign=middle;whiteSpace=wrap;rounded=0;" parent="1" vertex="1">
          <mxGeometry x="650" y="900" width="70" height="20" as="geometry" />
        </mxCell>
        <mxCell id="-j5esIaDe7Hmi_AwQub0-81" value="TimedEvent" style="swimlane;fontStyle=1;align=center;verticalAlign=top;childLayout=stackLayout;horizontal=1;startSize=26;horizontalStack=0;resizeParent=1;resizeParentMax=0;resizeLast=0;collapsible=1;marginBottom=0;" parent="1" vertex="1">
          <mxGeometry x="672" y="558" width="181" height="138" as="geometry" />
        </mxCell>
        <mxCell id="-j5esIaDe7Hmi_AwQub0-82" value="+ e: Event*" style="text;strokeColor=none;fillColor=none;align=left;verticalAlign=top;spacingLeft=4;spacingRight=4;overflow=hidden;rotatable=0;points=[[0,0.5],[1,0.5]];portConstraint=eastwest;" parent="-j5esIaDe7Hmi_AwQub0-81" vertex="1">
          <mxGeometry y="26" width="181" height="26" as="geometry" />
        </mxCell>
        <mxCell id="-j5esIaDe7Hmi_AwQub0-83" value="+ sig: bool" style="text;strokeColor=none;fillColor=none;align=left;verticalAlign=top;spacingLeft=4;spacingRight=4;overflow=hidden;rotatable=0;points=[[0,0.5],[1,0.5]];portConstraint=eastwest;" parent="-j5esIaDe7Hmi_AwQub0-81" vertex="1">
          <mxGeometry y="52" width="181" height="26" as="geometry" />
        </mxCell>
        <mxCell id="-j5esIaDe7Hmi_AwQub0-84" value="+ expire: uint64" style="text;strokeColor=none;fillColor=none;align=left;verticalAlign=top;spacingLeft=4;spacingRight=4;overflow=hidden;rotatable=0;points=[[0,0.5],[1,0.5]];portConstraint=eastwest;" parent="-j5esIaDe7Hmi_AwQub0-81" vertex="1">
          <mxGeometry y="78" width="181" height="26" as="geometry" />
        </mxCell>
        <mxCell id="-j5esIaDe7Hmi_AwQub0-85" value="" style="line;strokeWidth=1;fillColor=none;align=left;verticalAlign=middle;spacingTop=-1;spacingLeft=3;spacingRight=3;rotatable=0;labelPosition=right;points=[];portConstraint=eastwest;" parent="-j5esIaDe7Hmi_AwQub0-81" vertex="1">
          <mxGeometry y="104" width="181" height="8" as="geometry" />
        </mxCell>
        <mxCell id="-j5esIaDe7Hmi_AwQub0-86" value="+ Init(evt, expire): TimedEvent*" style="text;strokeColor=none;fillColor=none;align=left;verticalAlign=top;spacingLeft=4;spacingRight=4;overflow=hidden;rotatable=0;points=[[0,0.5],[1,0.5]];portConstraint=eastwest;" parent="-j5esIaDe7Hmi_AwQub0-81" vertex="1">
          <mxGeometry y="112" width="181" height="26" as="geometry" />
        </mxCell>
        <mxCell id="-j5esIaDe7Hmi_AwQub0-90" value="Extends" style="endArrow=block;endSize=16;endFill=0;html=1;edgeStyle=orthogonalEdgeStyle;exitX=0.5;exitY=0;exitDx=0;exitDy=0;" parent="1" source="-j5esIaDe7Hmi_AwQub0-81" target="p9OSbixDrH1Z1NHIFBw4-18" edge="1">
          <mxGeometry width="160" relative="1" as="geometry">
            <mxPoint x="1299" y="652" as="sourcePoint" />
            <mxPoint x="1174" y="426" as="targetPoint" />
          </mxGeometry>
        </mxCell>
        <mxCell id="-j5esIaDe7Hmi_AwQub0-93" style="edgeStyle=orthogonalEdgeStyle;curved=1;rounded=0;orthogonalLoop=1;jettySize=auto;html=1;entryX=0.5;entryY=0;entryDx=0;entryDy=0;" parent="1" source="-j5esIaDe7Hmi_AwQub0-91" target="-j5esIaDe7Hmi_AwQub0-97" edge="1">
          <mxGeometry relative="1" as="geometry" />
        </mxCell>
        <mxCell id="-j5esIaDe7Hmi_AwQub0-91" value="SplitMethods_Coequeal" style="strokeWidth=2;html=1;shape=mxgraph.flowchart.start_1;whiteSpace=wrap;" parent="1" vertex="1">
          <mxGeometry x="1402.37" y="57" width="160.74" height="28" as="geometry" />
        </mxCell>
        <mxCell id="-j5esIaDe7Hmi_AwQub0-112" value="Y" style="edgeStyle=orthogonalEdgeStyle;curved=1;rounded=0;orthogonalLoop=1;jettySize=auto;html=1;entryX=0.5;entryY=0;entryDx=0;entryDy=0;entryPerimeter=0;" parent="1" source="-j5esIaDe7Hmi_AwQub0-92" target="-j5esIaDe7Hmi_AwQub0-94" edge="1">
          <mxGeometry relative="1" as="geometry" />
        </mxCell>
        <mxCell id="-j5esIaDe7Hmi_AwQub0-134" value="N" style="edgeStyle=orthogonalEdgeStyle;curved=1;rounded=0;orthogonalLoop=1;jettySize=auto;html=1;" parent="1" source="-j5esIaDe7Hmi_AwQub0-92" target="-j5esIaDe7Hmi_AwQub0-130" edge="1">
          <mxGeometry relative="1" as="geometry" />
        </mxCell>
        <mxCell id="-j5esIaDe7Hmi_AwQub0-92" value="遍历modules" style="strokeWidth=2;html=1;shape=mxgraph.flowchart.decision;whiteSpace=wrap;" parent="1" vertex="1">
          <mxGeometry x="1432.74" y="156" width="100" height="28" as="geometry" />
        </mxCell>
        <mxCell id="-j5esIaDe7Hmi_AwQub0-113" value="Y" style="edgeStyle=orthogonalEdgeStyle;curved=1;rounded=0;orthogonalLoop=1;jettySize=auto;html=1;" parent="1" source="-j5esIaDe7Hmi_AwQub0-94" target="-j5esIaDe7Hmi_AwQub0-95" edge="1">
          <mxGeometry relative="1" as="geometry" />
        </mxCell>
        <mxCell id="-j5esIaDe7Hmi_AwQub0-94" value="遍历methods" style="strokeWidth=2;html=1;shape=mxgraph.flowchart.decision;whiteSpace=wrap;" parent="1" vertex="1">
          <mxGeometry x="1432.74" y="219" width="100" height="27" as="geometry" />
        </mxCell>
        <mxCell id="-j5esIaDe7Hmi_AwQub0-114" style="edgeStyle=orthogonalEdgeStyle;curved=1;rounded=0;orthogonalLoop=1;jettySize=auto;html=1;" parent="1" source="-j5esIaDe7Hmi_AwQub0-95" target="-j5esIaDe7Hmi_AwQub0-99" edge="1">
          <mxGeometry relative="1" as="geometry" />
        </mxCell>
        <mxCell id="-j5esIaDe7Hmi_AwQub0-95" value="跳过时钟不敏感的method" style="rounded=1;whiteSpace=wrap;html=1;absoluteArcSize=1;arcSize=14;strokeWidth=2;" parent="1" vertex="1">
          <mxGeometry x="1407.5" y="278" width="151" height="23" as="geometry" />
        </mxCell>
        <mxCell id="-j5esIaDe7Hmi_AwQub0-98" style="edgeStyle=orthogonalEdgeStyle;curved=1;rounded=0;orthogonalLoop=1;jettySize=auto;html=1;" parent="1" source="-j5esIaDe7Hmi_AwQub0-97" target="-j5esIaDe7Hmi_AwQub0-92" edge="1">
          <mxGeometry relative="1" as="geometry" />
        </mxCell>
        <mxCell id="-j5esIaDe7Hmi_AwQub0-97" value="定义ClkPair数组" style="rounded=1;whiteSpace=wrap;html=1;absoluteArcSize=1;arcSize=14;strokeWidth=2;" parent="1" vertex="1">
          <mxGeometry x="1432.74" y="107" width="100" height="27" as="geometry" />
        </mxCell>
        <mxCell id="-j5esIaDe7Hmi_AwQub0-115" value="N" style="edgeStyle=orthogonalEdgeStyle;rounded=0;orthogonalLoop=1;jettySize=auto;html=1;exitX=0;exitY=0.5;exitDx=0;exitDy=0;exitPerimeter=0;elbow=vertical;curved=1;" parent="1" source="-j5esIaDe7Hmi_AwQub0-99" target="-j5esIaDe7Hmi_AwQub0-100" edge="1">
          <mxGeometry relative="1" as="geometry" />
        </mxCell>
        <mxCell id="-j5esIaDe7Hmi_AwQub0-118" value="Y" style="edgeStyle=orthogonalEdgeStyle;curved=1;rounded=0;orthogonalLoop=1;jettySize=auto;html=1;exitX=1;exitY=0.5;exitDx=0;exitDy=0;exitPerimeter=0;" parent="1" source="-j5esIaDe7Hmi_AwQub0-99" target="-j5esIaDe7Hmi_AwQub0-103" edge="1">
          <mxGeometry relative="1" as="geometry" />
        </mxCell>
        <mxCell id="-j5esIaDe7Hmi_AwQub0-99" value="module.clk是否已在ClkPair数组" style="strokeWidth=2;html=1;shape=mxgraph.flowchart.decision;whiteSpace=wrap;" parent="1" vertex="1">
          <mxGeometry x="1414.5" y="319" width="137" height="51" as="geometry" />
        </mxCell>
        <mxCell id="-j5esIaDe7Hmi_AwQub0-116" style="edgeStyle=orthogonalEdgeStyle;curved=1;rounded=0;orthogonalLoop=1;jettySize=auto;html=1;exitX=0.5;exitY=1;exitDx=0;exitDy=0;entryX=0.5;entryY=0;entryDx=0;entryDy=0;" parent="1" source="-j5esIaDe7Hmi_AwQub0-100" target="-j5esIaDe7Hmi_AwQub0-101" edge="1">
          <mxGeometry relative="1" as="geometry" />
        </mxCell>
        <mxCell id="-j5esIaDe7Hmi_AwQub0-100" value="新建dosim.Routine" style="rounded=1;whiteSpace=wrap;html=1;absoluteArcSize=1;arcSize=14;strokeWidth=2;" parent="1" vertex="1">
          <mxGeometry x="1332.75" y="383" width="108" height="27" as="geometry" />
        </mxCell>
        <mxCell id="-j5esIaDe7Hmi_AwQub0-117" style="edgeStyle=orthogonalEdgeStyle;curved=1;rounded=0;orthogonalLoop=1;jettySize=auto;html=1;exitX=0.5;exitY=1;exitDx=0;exitDy=0;" parent="1" source="-j5esIaDe7Hmi_AwQub0-101" target="-j5esIaDe7Hmi_AwQub0-102" edge="1">
          <mxGeometry relative="1" as="geometry" />
        </mxCell>
        <mxCell id="-j5esIaDe7Hmi_AwQub0-101" value="BindRoutine：添加SimEntries，并新建go协程" style="rounded=1;whiteSpace=wrap;html=1;absoluteArcSize=1;arcSize=14;strokeWidth=2;" parent="1" vertex="1">
          <mxGeometry x="1310" y="438" width="153.5" height="33" as="geometry" />
        </mxCell>
        <mxCell id="-j5esIaDe7Hmi_AwQub0-124" style="edgeStyle=orthogonalEdgeStyle;curved=1;rounded=0;orthogonalLoop=1;jettySize=auto;html=1;entryX=0.5;entryY=0;entryDx=0;entryDy=0;entryPerimeter=0;" parent="1" source="-j5esIaDe7Hmi_AwQub0-102" target="-j5esIaDe7Hmi_AwQub0-104" edge="1">
          <mxGeometry relative="1" as="geometry" />
        </mxCell>
        <mxCell id="-j5esIaDe7Hmi_AwQub0-102" value="新建ClkPair加入数组" style="rounded=1;whiteSpace=wrap;html=1;absoluteArcSize=1;arcSize=14;strokeWidth=2;" parent="1" vertex="1">
          <mxGeometry x="1325.75" y="501" width="122" height="27" as="geometry" />
        </mxCell>
        <mxCell id="-j5esIaDe7Hmi_AwQub0-119" value="Y" style="edgeStyle=orthogonalEdgeStyle;curved=1;rounded=0;orthogonalLoop=1;jettySize=auto;html=1;exitX=0;exitY=0.5;exitDx=0;exitDy=0;exitPerimeter=0;" parent="1" source="-j5esIaDe7Hmi_AwQub0-103" target="-j5esIaDe7Hmi_AwQub0-106" edge="1">
          <mxGeometry relative="1" as="geometry" />
        </mxCell>
        <mxCell id="-j5esIaDe7Hmi_AwQub0-120" value="N" style="edgeStyle=orthogonalEdgeStyle;curved=1;rounded=0;orthogonalLoop=1;jettySize=auto;html=1;entryX=0.5;entryY=0;entryDx=0;entryDy=0;exitX=1;exitY=0.5;exitDx=0;exitDy=0;exitPerimeter=0;" parent="1" source="-j5esIaDe7Hmi_AwQub0-103" target="-j5esIaDe7Hmi_AwQub0-110" edge="1">
          <mxGeometry relative="1" as="geometry" />
        </mxCell>
        <mxCell id="-j5esIaDe7Hmi_AwQub0-103" value="找到的pair的split标记" style="strokeWidth=2;html=1;shape=mxgraph.flowchart.decision;whiteSpace=wrap;" parent="1" vertex="1">
          <mxGeometry x="1611" y="373" width="137" height="34" as="geometry" />
        </mxCell>
        <mxCell id="-j5esIaDe7Hmi_AwQub0-125" value="Y" style="edgeStyle=orthogonalEdgeStyle;curved=1;rounded=0;orthogonalLoop=1;jettySize=auto;html=1;" parent="1" source="-j5esIaDe7Hmi_AwQub0-104" target="-j5esIaDe7Hmi_AwQub0-105" edge="1">
          <mxGeometry relative="1" as="geometry" />
        </mxCell>
        <mxCell id="-j5esIaDe7Hmi_AwQub0-132" value="N" style="edgeStyle=orthogonalEdgeStyle;curved=1;rounded=0;orthogonalLoop=1;jettySize=auto;html=1;entryX=0.5;entryY=0;entryDx=0;entryDy=0;" parent="1" source="-j5esIaDe7Hmi_AwQub0-104" target="-j5esIaDe7Hmi_AwQub0-131" edge="1">
          <mxGeometry relative="1" as="geometry" />
        </mxCell>
        <mxCell id="-j5esIaDe7Hmi_AwQub0-104" value="pair.cout&amp;gt;=&lt;br&gt;SimManager.splitCount" style="strokeWidth=2;html=1;shape=mxgraph.flowchart.decision;whiteSpace=wrap;" parent="1" vertex="1">
          <mxGeometry x="1424" y="593" width="137" height="51" as="geometry" />
        </mxCell>
        <mxCell id="-j5esIaDe7Hmi_AwQub0-128" value="N" style="edgeStyle=orthogonalEdgeStyle;curved=1;rounded=0;orthogonalLoop=1;jettySize=auto;html=1;entryX=1;entryY=0.5;entryDx=0;entryDy=0;entryPerimeter=0;exitX=1;exitY=0.5;exitDx=0;exitDy=0;exitPerimeter=0;" parent="1" source="-j5esIaDe7Hmi_AwQub0-94" target="-j5esIaDe7Hmi_AwQub0-92" edge="1">
          <mxGeometry relative="1" as="geometry" />
        </mxCell>
        <mxCell id="-j5esIaDe7Hmi_AwQub0-129" style="edgeStyle=orthogonalEdgeStyle;curved=1;rounded=0;orthogonalLoop=1;jettySize=auto;html=1;entryX=0;entryY=0.5;entryDx=0;entryDy=0;entryPerimeter=0;exitX=0;exitY=0.5;exitDx=0;exitDy=0;" parent="1" source="-j5esIaDe7Hmi_AwQub0-131" target="-j5esIaDe7Hmi_AwQub0-94" edge="1">
          <mxGeometry relative="1" as="geometry" />
        </mxCell>
        <mxCell id="-j5esIaDe7Hmi_AwQub0-133" style="edgeStyle=orthogonalEdgeStyle;curved=1;rounded=0;orthogonalLoop=1;jettySize=auto;html=1;entryX=1;entryY=0.5;entryDx=0;entryDy=0;" parent="1" source="-j5esIaDe7Hmi_AwQub0-105" target="-j5esIaDe7Hmi_AwQub0-131" edge="1">
          <mxGeometry relative="1" as="geometry" />
        </mxCell>
        <mxCell id="-j5esIaDe7Hmi_AwQub0-105" value="置起pair的split标记" style="rounded=1;whiteSpace=wrap;html=1;absoluteArcSize=1;arcSize=14;strokeWidth=2;" parent="1" vertex="1">
          <mxGeometry x="1431.5" y="676.5" width="122" height="27" as="geometry" />
        </mxCell>
        <mxCell id="-j5esIaDe7Hmi_AwQub0-121" style="edgeStyle=orthogonalEdgeStyle;curved=1;rounded=0;orthogonalLoop=1;jettySize=auto;html=1;entryX=0.5;entryY=0.195;entryDx=0;entryDy=0;entryPerimeter=0;" parent="1" source="-j5esIaDe7Hmi_AwQub0-106" target="-j5esIaDe7Hmi_AwQub0-108" edge="1">
          <mxGeometry relative="1" as="geometry" />
        </mxCell>
        <mxCell id="-j5esIaDe7Hmi_AwQub0-106" value="新建dosim.Routine" style="rounded=1;whiteSpace=wrap;html=1;absoluteArcSize=1;arcSize=14;strokeWidth=2;" parent="1" vertex="1">
          <mxGeometry x="1532.74" y="420" width="108" height="27" as="geometry" />
        </mxCell>
        <mxCell id="-j5esIaDe7Hmi_AwQub0-126" style="edgeStyle=orthogonalEdgeStyle;curved=1;rounded=0;orthogonalLoop=1;jettySize=auto;html=1;entryX=1;entryY=0.5;entryDx=0;entryDy=0;entryPerimeter=0;" parent="1" source="-j5esIaDe7Hmi_AwQub0-107" target="-j5esIaDe7Hmi_AwQub0-104" edge="1">
          <mxGeometry relative="1" as="geometry" />
        </mxCell>
        <mxCell id="-j5esIaDe7Hmi_AwQub0-107" value="BindRoutine：添加SimEntries，并新建go协程" style="rounded=1;whiteSpace=wrap;html=1;absoluteArcSize=1;arcSize=14;strokeWidth=2;" parent="1" vertex="1">
          <mxGeometry x="1509.99" y="523" width="153.5" height="33" as="geometry" />
        </mxCell>
        <mxCell id="-j5esIaDe7Hmi_AwQub0-122" style="edgeStyle=orthogonalEdgeStyle;curved=1;rounded=0;orthogonalLoop=1;jettySize=auto;html=1;" parent="1" source="-j5esIaDe7Hmi_AwQub0-108" target="-j5esIaDe7Hmi_AwQub0-107" edge="1">
          <mxGeometry relative="1" as="geometry" />
        </mxCell>
        <mxCell id="-j5esIaDe7Hmi_AwQub0-108" value="更新pair: routine，count归1，清除split标记" style="rounded=1;whiteSpace=wrap;html=1;absoluteArcSize=1;arcSize=14;strokeWidth=2;" parent="1" vertex="1">
          <mxGeometry x="1514.37" y="469" width="144.75" height="31" as="geometry" />
        </mxCell>
        <mxCell id="-j5esIaDe7Hmi_AwQub0-109" value="pair.count表示pair内routine的host个数" style="text;html=1;strokeColor=none;fillColor=none;align=center;verticalAlign=middle;whiteSpace=wrap;rounded=0;" parent="1" vertex="1">
          <mxGeometry x="1646" y="641" width="120" height="55" as="geometry" />
        </mxCell>
        <mxCell id="-j5esIaDe7Hmi_AwQub0-123" style="edgeStyle=orthogonalEdgeStyle;curved=1;rounded=0;orthogonalLoop=1;jettySize=auto;html=1;entryX=0.5;entryY=0;entryDx=0;entryDy=0;" parent="1" source="-j5esIaDe7Hmi_AwQub0-110" target="-j5esIaDe7Hmi_AwQub0-111" edge="1">
          <mxGeometry relative="1" as="geometry" />
        </mxCell>
        <mxCell id="-j5esIaDe7Hmi_AwQub0-110" value="pair的routine增加method.Host" style="rounded=1;whiteSpace=wrap;html=1;absoluteArcSize=1;arcSize=14;strokeWidth=2;" parent="1" vertex="1">
          <mxGeometry x="1720" y="450" width="108" height="27" as="geometry" />
        </mxCell>
        <mxCell id="-j5esIaDe7Hmi_AwQub0-127" style="edgeStyle=orthogonalEdgeStyle;curved=1;rounded=0;orthogonalLoop=1;jettySize=auto;html=1;entryX=1;entryY=0.5;entryDx=0;entryDy=0;entryPerimeter=0;exitX=0.5;exitY=1;exitDx=0;exitDy=0;" parent="1" source="-j5esIaDe7Hmi_AwQub0-111" target="-j5esIaDe7Hmi_AwQub0-104" edge="1">
          <mxGeometry relative="1" as="geometry" />
        </mxCell>
        <mxCell id="-j5esIaDe7Hmi_AwQub0-111" value="增加pair.count" style="rounded=1;whiteSpace=wrap;html=1;absoluteArcSize=1;arcSize=14;strokeWidth=2;" parent="1" vertex="1">
          <mxGeometry x="1720" y="506" width="108" height="27" as="geometry" />
        </mxCell>
        <mxCell id="-j5esIaDe7Hmi_AwQub0-130" value="结束" style="strokeWidth=2;html=1;shape=mxgraph.flowchart.terminator;whiteSpace=wrap;" parent="1" vertex="1">
          <mxGeometry x="1329" y="153.5" width="66" height="33" as="geometry" />
        </mxCell>
        <mxCell id="-j5esIaDe7Hmi_AwQub0-131" value="null" style="rounded=1;whiteSpace=wrap;html=1;absoluteArcSize=1;arcSize=14;strokeWidth=2;" parent="1" vertex="1">
          <mxGeometry x="1310" y="676.5" width="29" height="27" as="geometry" />
        </mxCell>
        <mxCell id="SKbaHKgdaT2-RbnQXm6t-35" value="Module" style="rounded=1;whiteSpace=wrap;html=1;fillColor=#dae8fc;strokeColor=#6c8ebf;fontSize=16;fontStyle=1;gradientColor=#7ea6e0;" vertex="1" parent="1">
          <mxGeometry x="1451" y="1181" width="98" height="60" as="geometry" />
        </mxCell>
        <mxCell id="SKbaHKgdaT2-RbnQXm6t-36" value="SimManager" style="rounded=1;whiteSpace=wrap;html=1;fillColor=#d5e8d4;strokeColor=#82b366;fontSize=16;fontStyle=1;gradientColor=#97d077;verticalAlign=top;" vertex="1" parent="1">
          <mxGeometry x="1446.5" y="1046" width="231" height="97.5" as="geometry" />
        </mxCell>
        <mxCell id="SKbaHKgdaT2-RbnQXm6t-37" value="Event" style="rounded=1;whiteSpace=wrap;html=1;fillColor=#dae8fc;strokeColor=#6c8ebf;fontSize=16;fontStyle=1;gradientColor=#7ea6e0;" vertex="1" parent="1">
          <mxGeometry x="1573" y="1181" width="99" height="59" as="geometry" />
        </mxCell>
        <mxCell id="SKbaHKgdaT2-RbnQXm6t-38" value="Method" style="rounded=1;whiteSpace=wrap;html=1;fillColor=#dae8fc;strokeColor=#6c8ebf;fontSize=16;fontStyle=1;gradientColor=#7ea6e0;" vertex="1" parent="1">
          <mxGeometry x="1286" y="1182.25" width="120" height="60" as="geometry" />
        </mxCell>
        <mxCell id="SKbaHKgdaT2-RbnQXm6t-41" value="Routine" style="rounded=1;whiteSpace=wrap;html=1;fillColor=#fff2cc;strokeColor=#d6b656;fontSize=16;fontStyle=1;gradientColor=#ffd966;" vertex="1" parent="1">
          <mxGeometry x="1286" y="1260.25" width="120" height="60" as="geometry" />
        </mxCell>
        <mxCell id="SKbaHKgdaT2-RbnQXm6t-42" value="SimEntries" style="rounded=1;whiteSpace=wrap;html=1;fillColor=#d5e8d4;strokeColor=#82b366;fontSize=16;fontStyle=1;gradientColor=#97d077;" vertex="1" parent="1">
          <mxGeometry x="1286" y="1028.25" width="120" height="60" as="geometry" />
        </mxCell>
        <mxCell id="SKbaHKgdaT2-RbnQXm6t-43" value="SimClockUnit" style="rounded=1;whiteSpace=wrap;html=1;fillColor=#dae8fc;strokeColor=#6c8ebf;fontSize=16;fontStyle=1;gradientColor=#7ea6e0;" vertex="1" parent="1">
          <mxGeometry x="1286" y="1105.25" width="120" height="60" as="geometry" />
        </mxCell>
        <mxCell id="SKbaHKgdaT2-RbnQXm6t-44" value="Sensitive" style="rounded=1;whiteSpace=wrap;html=1;fillColor=#dae8fc;strokeColor=#6c8ebf;fontSize=16;fontStyle=1;gradientColor=#7ea6e0;" vertex="1" parent="1">
          <mxGeometry x="1286" y="1338.25" width="120" height="60" as="geometry" />
        </mxCell>
        <mxCell id="SKbaHKgdaT2-RbnQXm6t-48" value="" style="endArrow=none;dashed=1;html=1;fontFamily=Times New Roman;fontSize=18;strokeWidth=2;strokeColor=#0000FF;" edge="1" parent="1">
          <mxGeometry width="50" height="50" relative="1" as="geometry">
            <mxPoint x="1703" y="1444" as="sourcePoint" />
            <mxPoint x="1703" y="915" as="targetPoint" />
          </mxGeometry>
        </mxCell>
        <mxCell id="SKbaHKgdaT2-RbnQXm6t-50" value="DPI extern" style="rounded=1;whiteSpace=wrap;html=1;fillColor=#fff2cc;strokeColor=#d6b656;fontSize=16;fontStyle=1;" vertex="1" parent="1">
          <mxGeometry x="1735" y="1267" width="98" height="106" as="geometry" />
        </mxCell>
        <mxCell id="SKbaHKgdaT2-RbnQXm6t-52" value="Scospores" style="rounded=0;whiteSpace=wrap;html=1;fontFamily=Times New Roman;fontSize=18;align=center;verticalAlign=top;dashed=1;dashPattern=1 4;strokeWidth=1;fontStyle=1" vertex="1" parent="1">
          <mxGeometry x="1872" y="990" width="300" height="429" as="geometry" />
        </mxCell>
        <mxCell id="SKbaHKgdaT2-RbnQXm6t-53" value="sc_method" style="rounded=1;whiteSpace=wrap;html=1;fillColor=#dae8fc;strokeColor=#6c8ebf;fontSize=16;fontStyle=1;gradientColor=#7ea6e0;" vertex="1" parent="1">
          <mxGeometry x="1894" y="1334" width="120" height="60" as="geometry" />
        </mxCell>
        <mxCell id="SKbaHKgdaT2-RbnQXm6t-54" value="sc_thread" style="rounded=1;whiteSpace=wrap;html=1;fillColor=#fff2cc;strokeColor=#d6b656;fontSize=16;fontStyle=1;gradientColor=#ffd966;" vertex="1" parent="1">
          <mxGeometry x="2033" y="1334" width="120" height="60" as="geometry" />
        </mxCell>
        <mxCell id="SKbaHKgdaT2-RbnQXm6t-56" value="sc_module" style="rounded=1;whiteSpace=wrap;html=1;fillColor=#dae8fc;strokeColor=#6c8ebf;fontSize=16;fontStyle=1;gradientColor=#7ea6e0;" vertex="1" parent="1">
          <mxGeometry x="1894" y="1181" width="120" height="60" as="geometry" />
        </mxCell>
        <mxCell id="SKbaHKgdaT2-RbnQXm6t-57" value="sc_event" style="rounded=1;whiteSpace=wrap;html=1;fillColor=#dae8fc;strokeColor=#6c8ebf;fontSize=16;fontStyle=1;gradientColor=#7ea6e0;" vertex="1" parent="1">
          <mxGeometry x="1894" y="1105" width="120" height="60" as="geometry" />
        </mxCell>
        <mxCell id="SKbaHKgdaT2-RbnQXm6t-58" value="sc_clock" style="rounded=1;whiteSpace=wrap;html=1;fillColor=#dae8fc;strokeColor=#6c8ebf;fontSize=16;fontStyle=1;gradientColor=#7ea6e0;" vertex="1" parent="1">
          <mxGeometry x="2033" y="1028.25" width="120" height="60" as="geometry" />
        </mxCell>
        <mxCell id="SKbaHKgdaT2-RbnQXm6t-59" value="sc_simcontext" style="rounded=1;whiteSpace=wrap;html=1;fillColor=#d5e8d4;strokeColor=#82b366;fontSize=16;fontStyle=1;gradientColor=#97d077;" vertex="1" parent="1">
          <mxGeometry x="2033" y="1181" width="120" height="60" as="geometry" />
        </mxCell>
        <mxCell id="SKbaHKgdaT2-RbnQXm6t-60" value="sensitive" style="rounded=1;whiteSpace=wrap;html=1;fillColor=#dae8fc;strokeColor=#6c8ebf;fontSize=16;fontStyle=1;gradientColor=#7ea6e0;" vertex="1" parent="1">
          <mxGeometry x="2033" y="1105" width="120" height="60" as="geometry" />
        </mxCell>
        <mxCell id="SKbaHKgdaT2-RbnQXm6t-61" value="sc_object" style="rounded=1;whiteSpace=wrap;html=1;fillColor=#f5f5f5;strokeColor=#666666;fontSize=16;fontStyle=1;gradientColor=#b3b3b3;" vertex="1" parent="1">
          <mxGeometry x="1894" y="1028" width="120" height="60" as="geometry" />
        </mxCell>
        <mxCell id="SKbaHKgdaT2-RbnQXm6t-62" value="process_host" style="rounded=1;whiteSpace=wrap;html=1;fillColor=#f5f5f5;strokeColor=#666666;fontSize=16;fontStyle=1;gradientColor=#b3b3b3;" vertex="1" parent="1">
          <mxGeometry x="1894" y="1258" width="120" height="60" as="geometry" />
        </mxCell>
        <mxCell id="SKbaHKgdaT2-RbnQXm6t-63" value="sc_process_b" style="rounded=1;whiteSpace=wrap;html=1;fillColor=#f5f5f5;strokeColor=#666666;fontSize=16;fontStyle=1;gradientColor=#b3b3b3;" vertex="1" parent="1">
          <mxGeometry x="2033" y="1258" width="120" height="60" as="geometry" />
        </mxCell>
        <mxCell id="SKbaHKgdaT2-RbnQXm6t-64" value="DominoDeck" style="rounded=0;whiteSpace=wrap;html=1;fontFamily=Times New Roman;fontSize=18;align=center;verticalAlign=top;dashed=1;dashPattern=1 4;strokeWidth=1;fontStyle=1" vertex="1" parent="1">
          <mxGeometry x="1716" y="990" width="134" height="157" as="geometry" />
        </mxCell>
        <mxCell id="SKbaHKgdaT2-RbnQXm6t-65" value="DominoAPI" style="rounded=1;whiteSpace=wrap;html=1;fillColor=#fff2cc;strokeColor=#d6b656;fontSize=16;fontStyle=1;" vertex="1" parent="1">
          <mxGeometry x="1733" y="1029" width="98" height="94" as="geometry" />
        </mxCell>
        <mxCell id="SKbaHKgdaT2-RbnQXm6t-67" value="DPI" style="rounded=1;whiteSpace=wrap;html=1;fillColor=#fff2cc;strokeColor=#d6b656;fontSize=16;fontStyle=1;" vertex="1" parent="1">
          <mxGeometry x="1573" y="1271" width="98" height="106" as="geometry" />
        </mxCell>
        <mxCell id="SKbaHKgdaT2-RbnQXm6t-68" value="SyRoutine" style="rounded=1;whiteSpace=wrap;html=1;fillColor=#fff2cc;strokeColor=#d6b656;fontSize=16;fontStyle=1;gradientColor=#ffd966;" vertex="1" parent="1">
          <mxGeometry x="1451" y="1296" width="98" height="60" as="geometry" />
        </mxCell>
        <mxCell id="SKbaHKgdaT2-RbnQXm6t-69" value="golang" style="text;html=1;strokeColor=none;fillColor=none;align=center;verticalAlign=middle;whiteSpace=wrap;rounded=0;fontFamily=Times New Roman;fontSize=24;fontStyle=3" vertex="1" parent="1">
          <mxGeometry x="1421" y="919" width="86" height="36" as="geometry" />
        </mxCell>
        <mxCell id="SKbaHKgdaT2-RbnQXm6t-70" value="cpp" style="text;html=1;strokeColor=none;fillColor=none;align=center;verticalAlign=middle;whiteSpace=wrap;rounded=0;fontFamily=Times New Roman;fontSize=24;fontStyle=3" vertex="1" parent="1">
          <mxGeometry x="1900" y="922" width="86" height="36" as="geometry" />
        </mxCell>
        <mxCell id="SKbaHKgdaT2-RbnQXm6t-73" value="" style="html=1;shadow=0;dashed=1;align=center;verticalAlign=middle;shape=mxgraph.arrows2.tailedNotchedArrow;dy1=8.82;dx1=47.35;notch=20;arrowHead=11.29;dx2=19.88;dy2=23.35;fontFamily=Times New Roman;fontSize=24;strokeColor=#EA6B66;strokeWidth=1;fillColor=#E6D0DE;" vertex="1" parent="1">
          <mxGeometry x="1689.5" y="1073" width="192" height="60" as="geometry" />
        </mxCell>
        <mxCell id="SKbaHKgdaT2-RbnQXm6t-74" value="" style="html=1;shadow=0;dashed=0;align=center;verticalAlign=middle;shape=mxgraph.arrows2.tailedNotchedArrow;dy1=8.82;dx1=47.35;notch=20;arrowHead=11.29;dx2=19.88;dy2=23.35;fontFamily=Times New Roman;fontSize=24;strokeColor=#EA6B66;strokeWidth=1;fillColor=#E6D0DE;rotation=180;" vertex="1" parent="1">
          <mxGeometry x="1681" y="1317" width="192" height="60" as="geometry" />
        </mxCell>
        <mxCell id="SKbaHKgdaT2-RbnQXm6t-75" value="调度器" style="rounded=1;whiteSpace=wrap;html=1;fillColor=#fff2cc;strokeColor=#d6b656;fontSize=16;fontStyle=1;gradientColor=#ffd966;" vertex="1" parent="1">
          <mxGeometry x="1502" y="1087.5" width="120" height="46" as="geometry" />
        </mxCell>
        <mxCell id="SKbaHKgdaT2-RbnQXm6t-76" value="" style="rounded=0;whiteSpace=wrap;html=1;fontFamily=Times New Roman;fontSize=16;align=left;verticalAlign=middle;dashed=1;dashPattern=1 4;strokeWidth=1;" vertex="1" parent="1">
          <mxGeometry x="120" y="1752" width="169" height="521" as="geometry" />
        </mxCell>
        <mxCell id="SKbaHKgdaT2-RbnQXm6t-77" value="" style="rounded=0;whiteSpace=wrap;html=1;fontFamily=Times New Roman;fontSize=16;align=left;verticalAlign=middle;dashed=1;dashPattern=1 4;strokeWidth=1;" vertex="1" parent="1">
          <mxGeometry x="301" y="1752" width="733" height="521" as="geometry" />
        </mxCell>
        <mxCell id="SKbaHKgdaT2-RbnQXm6t-78" style="edgeStyle=orthogonalEdgeStyle;curved=1;rounded=0;orthogonalLoop=1;jettySize=auto;html=1;fontSize=16;strokeWidth=2;" edge="1" parent="1" source="SKbaHKgdaT2-RbnQXm6t-79" target="SKbaHKgdaT2-RbnQXm6t-82">
          <mxGeometry relative="1" as="geometry" />
        </mxCell>
        <mxCell id="SKbaHKgdaT2-RbnQXm6t-79" value="Elaborate" style="rounded=1;whiteSpace=wrap;html=1;fillColor=#dae8fc;strokeColor=#6c8ebf;fontSize=16;fontStyle=1;gradientColor=#7ea6e0;" vertex="1" parent="1">
          <mxGeometry x="138" y="1772" width="120" height="60" as="geometry" />
        </mxCell>
        <mxCell id="SKbaHKgdaT2-RbnQXm6t-80" value="Cleanup" style="rounded=1;whiteSpace=wrap;html=1;fillColor=#f5f5f5;strokeColor=#666666;fontSize=16;fontStyle=1;gradientColor=#b3b3b3;" vertex="1" parent="1">
          <mxGeometry x="138" y="2084" width="120" height="60" as="geometry" />
        </mxCell>
        <mxCell id="SKbaHKgdaT2-RbnQXm6t-81" style="edgeStyle=orthogonalEdgeStyle;rounded=0;orthogonalLoop=1;jettySize=auto;html=1;entryX=0;entryY=0.5;entryDx=0;entryDy=0;fontSize=16;curved=1;strokeWidth=2;" edge="1" parent="1" source="SKbaHKgdaT2-RbnQXm6t-82" target="SKbaHKgdaT2-RbnQXm6t-84">
          <mxGeometry relative="1" as="geometry" />
        </mxCell>
        <mxCell id="SKbaHKgdaT2-RbnQXm6t-82" value="sc_start()" style="rounded=1;whiteSpace=wrap;html=1;fillColor=#d5e8d4;strokeColor=#82b366;fontSize=16;fontStyle=1;gradientColor=#97d077;" vertex="1" parent="1">
          <mxGeometry x="138" y="1928" width="120" height="60" as="geometry" />
        </mxCell>
        <mxCell id="SKbaHKgdaT2-RbnQXm6t-83" style="edgeStyle=orthogonalEdgeStyle;curved=1;rounded=0;orthogonalLoop=1;jettySize=auto;html=1;entryX=0;entryY=0.5;entryDx=0;entryDy=0;fontSize=16;strokeWidth=2;" edge="1" parent="1" source="SKbaHKgdaT2-RbnQXm6t-84" target="SKbaHKgdaT2-RbnQXm6t-89">
          <mxGeometry relative="1" as="geometry" />
        </mxCell>
        <mxCell id="SKbaHKgdaT2-RbnQXm6t-84" value="PrepareStart()" style="rounded=1;whiteSpace=wrap;html=1;fillColor=#d5e8d4;strokeColor=#82b366;fontSize=16;fontStyle=1;verticalAlign=top;" vertex="1" parent="1">
          <mxGeometry x="361" y="1771.5" width="208" height="119" as="geometry" />
        </mxCell>
        <mxCell id="SKbaHKgdaT2-RbnQXm6t-85" style="edgeStyle=orthogonalEdgeStyle;curved=1;rounded=0;orthogonalLoop=1;jettySize=auto;html=1;entryX=0;entryY=0.5;entryDx=0;entryDy=0;entryPerimeter=0;fontFamily=Times New Roman;fontSize=18;endArrow=open;endFill=0;strokeWidth=2;exitX=0.5;exitY=1;exitDx=0;exitDy=0;strokeColor=#FFD966;" edge="1" parent="1" source="SKbaHKgdaT2-RbnQXm6t-86" target="SKbaHKgdaT2-RbnQXm6t-105">
          <mxGeometry relative="1" as="geometry" />
        </mxCell>
        <mxCell id="SKbaHKgdaT2-RbnQXm6t-86" value="methods拆分" style="rounded=1;whiteSpace=wrap;html=1;fillColor=#fff2cc;strokeColor=#d6b656;fontSize=16;fontStyle=1;gradientColor=#ffd966;" vertex="1" parent="1">
          <mxGeometry x="375" y="1813.5" width="76" height="60" as="geometry" />
        </mxCell>
        <mxCell id="SKbaHKgdaT2-RbnQXm6t-87" value="methods排序" style="rounded=1;whiteSpace=wrap;html=1;fillColor=#d5e8d4;strokeColor=#82b366;fontSize=16;fontStyle=1;gradientColor=#97d077;" vertex="1" parent="1">
          <mxGeometry x="483" y="1813.5" width="76" height="60" as="geometry" />
        </mxCell>
        <mxCell id="SKbaHKgdaT2-RbnQXm6t-88" style="edgeStyle=orthogonalEdgeStyle;curved=1;rounded=0;orthogonalLoop=1;jettySize=auto;html=1;fontSize=16;strokeWidth=2;" edge="1" parent="1" source="SKbaHKgdaT2-RbnQXm6t-89" target="SKbaHKgdaT2-RbnQXm6t-93">
          <mxGeometry relative="1" as="geometry" />
        </mxCell>
        <mxCell id="SKbaHKgdaT2-RbnQXm6t-89" value="ZeroTickStart()" style="rounded=1;whiteSpace=wrap;html=1;fillColor=#d5e8d4;strokeColor=#82b366;fontSize=16;fontStyle=1;verticalAlign=top;" vertex="1" parent="1">
          <mxGeometry x="667" y="1771.5" width="208" height="119" as="geometry" />
        </mxCell>
        <mxCell id="SKbaHKgdaT2-RbnQXm6t-90" value="时钟=0" style="rounded=1;whiteSpace=wrap;html=1;fillColor=#d5e8d4;strokeColor=#82b366;fontSize=16;fontStyle=1;gradientColor=#97d077;" vertex="1" parent="1">
          <mxGeometry x="681" y="1816.5" width="76" height="60" as="geometry" />
        </mxCell>
        <mxCell id="SKbaHKgdaT2-RbnQXm6t-91" value="0时刻methods" style="rounded=1;whiteSpace=wrap;html=1;fillColor=#d5e8d4;strokeColor=#82b366;fontSize=16;fontStyle=1;gradientColor=#97d077;" vertex="1" parent="1">
          <mxGeometry x="789" y="1816.5" width="76" height="60" as="geometry" />
        </mxCell>
        <mxCell id="SKbaHKgdaT2-RbnQXm6t-92" style="edgeStyle=orthogonalEdgeStyle;curved=1;rounded=0;orthogonalLoop=1;jettySize=auto;html=1;entryX=1;entryY=0.5;entryDx=0;entryDy=0;fontSize=16;strokeWidth=2;" edge="1" parent="1" source="SKbaHKgdaT2-RbnQXm6t-93" target="SKbaHKgdaT2-RbnQXm6t-80">
          <mxGeometry relative="1" as="geometry" />
        </mxCell>
        <mxCell id="SKbaHKgdaT2-RbnQXm6t-93" value="执行" style="rounded=1;whiteSpace=wrap;html=1;fillColor=#d5e8d4;strokeColor=#82b366;fontSize=16;fontStyle=1;verticalAlign=top;" vertex="1" parent="1">
          <mxGeometry x="489" y="1939.5" width="311" height="223.5" as="geometry" />
        </mxCell>
        <mxCell id="SKbaHKgdaT2-RbnQXm6t-94" value="" style="edgeStyle=orthogonalEdgeStyle;curved=1;rounded=0;orthogonalLoop=1;jettySize=auto;html=1;fontSize=16;strokeWidth=2;exitX=1;exitY=0.5;exitDx=0;exitDy=0;" edge="1" parent="1" source="SKbaHKgdaT2-RbnQXm6t-95">
          <mxGeometry relative="1" as="geometry">
            <mxPoint x="671" y="2006" as="targetPoint" />
          </mxGeometry>
        </mxCell>
        <mxCell id="SKbaHKgdaT2-RbnQXm6t-95" value="event触发" style="rounded=1;whiteSpace=wrap;html=1;fillColor=#d5e8d4;strokeColor=#82b366;fontSize=16;fontStyle=1;gradientColor=#97d077;" vertex="1" parent="1">
          <mxGeometry x="507" y="1976" width="83" height="60" as="geometry" />
        </mxCell>
        <mxCell id="SKbaHKgdaT2-RbnQXm6t-96" style="edgeStyle=orthogonalEdgeStyle;curved=1;rounded=0;orthogonalLoop=1;jettySize=auto;html=1;entryX=1;entryY=0.5;entryDx=0;entryDy=0;fontSize=16;strokeWidth=2;exitX=0.5;exitY=1;exitDx=0;exitDy=0;" edge="1" parent="1" source="SKbaHKgdaT2-RbnQXm6t-98" target="SKbaHKgdaT2-RbnQXm6t-100">
          <mxGeometry relative="1" as="geometry" />
        </mxCell>
        <mxCell id="SKbaHKgdaT2-RbnQXm6t-97" style="edgeStyle=orthogonalEdgeStyle;curved=1;rounded=0;orthogonalLoop=1;jettySize=auto;html=1;fontSize=16;strokeWidth=2;exitX=0;exitY=1;exitDx=0;exitDy=0;entryX=1;entryY=1;entryDx=0;entryDy=0;strokeColor=#EA6B66;" edge="1" parent="1" source="SKbaHKgdaT2-RbnQXm6t-98" target="SKbaHKgdaT2-RbnQXm6t-95">
          <mxGeometry relative="1" as="geometry">
            <mxPoint x="590" y="2021" as="targetPoint" />
          </mxGeometry>
        </mxCell>
        <mxCell id="SKbaHKgdaT2-RbnQXm6t-98" value="超时methods&lt;br&gt;排序执行" style="rounded=1;whiteSpace=wrap;html=1;fillColor=#d5e8d4;strokeColor=#82b366;fontSize=16;fontStyle=1;gradientColor=#97d077;" vertex="1" parent="1">
          <mxGeometry x="671" y="1976" width="111" height="60" as="geometry" />
        </mxCell>
        <mxCell id="SKbaHKgdaT2-RbnQXm6t-99" style="edgeStyle=orthogonalEdgeStyle;curved=1;rounded=0;orthogonalLoop=1;jettySize=auto;html=1;fontSize=16;strokeWidth=2;exitX=0;exitY=0.5;exitDx=0;exitDy=0;" edge="1" parent="1" source="SKbaHKgdaT2-RbnQXm6t-100" target="SKbaHKgdaT2-RbnQXm6t-95">
          <mxGeometry relative="1" as="geometry" />
        </mxCell>
        <mxCell id="SKbaHKgdaT2-RbnQXm6t-100" value="推进时钟" style="rounded=1;whiteSpace=wrap;html=1;fillColor=#d5e8d4;strokeColor=#82b366;fontSize=16;fontStyle=1;gradientColor=#97d077;" vertex="1" parent="1">
          <mxGeometry x="595.5" y="2085" width="83" height="60" as="geometry" />
        </mxCell>
        <mxCell id="SKbaHKgdaT2-RbnQXm6t-101" style="edgeStyle=orthogonalEdgeStyle;curved=1;rounded=0;orthogonalLoop=1;jettySize=auto;html=1;fontSize=16;strokeWidth=2;strokeColor=#EA6B66;endArrow=oval;endFill=1;" edge="1" parent="1" source="SKbaHKgdaT2-RbnQXm6t-102" target="SKbaHKgdaT2-RbnQXm6t-98">
          <mxGeometry relative="1" as="geometry" />
        </mxCell>
        <mxCell id="SKbaHKgdaT2-RbnQXm6t-102" value="1.notify() 立即&lt;br&gt;2.notify(t) 定时&lt;br&gt;3.notify(SC_ZERO_TIME)" style="shape=note;whiteSpace=wrap;html=1;backgroundOutline=1;darkOpacity=0.05;fontSize=16;verticalAlign=middle;align=left;fillColor=#f8cecc;strokeColor=#b85450;fontStyle=1;fontFamily=Times New Roman;" vertex="1" parent="1">
          <mxGeometry x="825" y="2015" width="188" height="78" as="geometry" />
        </mxCell>
        <mxCell id="SKbaHKgdaT2-RbnQXm6t-103" value="(*SimManager)Start()" style="text;html=1;strokeColor=none;fillColor=none;align=center;verticalAlign=middle;whiteSpace=wrap;rounded=0;dashed=1;dashPattern=1 4;fontFamily=Times New Roman;fontSize=18;fontStyle=1" vertex="1" parent="1">
          <mxGeometry x="550" y="1721" width="182" height="20" as="geometry" />
        </mxCell>
        <mxCell id="SKbaHKgdaT2-RbnQXm6t-104" value="sc_main()" style="text;html=1;strokeColor=none;fillColor=none;align=center;verticalAlign=middle;whiteSpace=wrap;rounded=0;dashed=1;dashPattern=1 4;fontFamily=Times New Roman;fontSize=18;fontStyle=1" vertex="1" parent="1">
          <mxGeometry x="130" y="1721" width="136" height="20" as="geometry" />
        </mxCell>
        <mxCell id="SKbaHKgdaT2-RbnQXm6t-105" value="go RoutineEntry()" style="verticalLabelPosition=bottom;verticalAlign=top;html=1;shape=mxgraph.flowchart.parallel_mode;pointerEvents=1;fontFamily=Times New Roman;fontSize=18;strokeWidth=1;fontStyle=1" vertex="1" parent="1">
          <mxGeometry x="462" y="2195" width="148" height="40" as="geometry" />
        </mxCell>
      </root>
    </mxGraphModel>
  </diagram>
</mxfile>
